<svg width="512" height="512" viewBox="0 0 512 512" fill="none" xmlns="http://www.w3.org/2000/svg">
<g clip-path="url(#clip0_16_653)">
<path d="M395.937 48.0301L395.94 48.031C416.691 54.9241 434.742 68.1815 447.529 85.9195C460.315 103.658 467.187 124.974 467.167 146.84V146.842V256.005C467.167 335.603 418.748 397.585 368.857 440.301C319.003 482.984 268.085 506.073 263.985 507.884L263.98 507.886C261.572 508.955 258.968 509.508 256.333 509.508C253.699 509.508 251.094 508.955 248.687 507.886L248.682 507.884C244.582 506.073 193.663 482.984 143.81 440.301C93.9185 397.585 45.5001 335.603 45.5001 256.005L45.5001 146.842L45.5001 146.84C45.4785 124.976 52.3468 103.662 65.1294 85.9241C77.9119 68.1864 95.9586 54.9275 116.706 48.0308L116.708 48.0301L250.382 3.46504C250.382 3.46496 250.383 3.46488 250.383 3.46481C254.246 2.17832 258.422 2.1784 262.285 3.46504L395.937 48.0301Z" fill="#A9D3FF" stroke="#769DC6" stroke-width="5"/>
<mask id="mask0_16_653" style="mask-type:alpha" maskUnits="userSpaceOnUse" x="56" y="16" width="400" height="480">
<path d="M387.62 58.8042L262.32 17.0248C258.217 15.6584 253.783 15.6584 249.68 17.0248L124.36 58.8042C104.442 65.4251 87.1164 78.1539 74.8448 95.1824C62.5732 112.211 55.9794 132.673 56 153.663V256.001C56 407.259 240 490.798 247.88 494.277C250.436 495.413 253.203 496 256 496C258.797 496 261.564 495.413 264.12 494.277C272 490.798 456 407.259 456 256.001V153.663C456.019 132.671 449.423 112.207 437.147 95.1778C424.872 78.149 407.542 65.4217 387.62 58.8042Z" fill="#A9D3FF"/>
</mask>
<g mask="url(#mask0_16_653)">
</g>
<path opacity="0.5" d="M149.716 96.4028C147.707 96.7748 143.242 98.4119 139.893 100.049C125.829 106.821 116.602 121.704 116.602 137.479C116.676 146.558 120.843 157.199 127.168 164.268C129.252 166.65 130.815 168.584 130.666 168.659C130.517 168.808 128.359 170.147 125.903 171.784C110.723 181.607 100.23 200.582 100.23 218.219C100.23 222.088 100.528 223.055 102.314 224.99C106.184 229.381 113.625 228.562 116.229 223.502C116.825 222.311 117.346 219.93 117.346 218.144C117.42 209.661 122.183 198.201 128.433 191.653C136.172 183.542 144.656 179.672 156.041 179.077C167.054 178.481 176.282 181.532 184.69 188.453C190.569 193.364 194.587 193.736 198.457 189.867C204.112 184.211 201.359 178.481 189.527 170.966C187.667 169.849 186.03 168.808 185.881 168.659C185.732 168.584 187.221 166.724 189.081 164.566C196.299 156.38 200.541 144.028 199.573 133.759C198.606 123.043 194.215 114.337 185.955 106.597C176.207 97.519 163.259 93.7983 149.716 96.4028ZM168.096 114.857C178.514 119.694 184.17 130.41 182.086 141.423C179.928 152.883 169.808 161.292 158.273 161.217C146.962 161.143 137.958 154.297 134.759 143.284C131.187 131.005 138.479 117.76 151.055 113.667C155.371 112.253 163.78 112.774 168.096 114.857Z" fill="white"/>
<path opacity="0.5" d="M346.318 96.3283C332.849 98.9328 320.422 109.946 315.659 123.564C310.822 137.405 314.022 153.33 323.919 164.566C325.78 166.724 327.268 168.584 327.119 168.659C326.97 168.733 324.366 170.445 321.389 172.454C312.832 178.184 310.674 181.607 312.311 186.593C313.353 189.867 316.701 192.397 320.124 192.471C322.58 192.546 323.175 192.174 332.328 185.625C339.174 180.788 344.681 179.226 355.099 179.3C365.294 179.374 369.982 180.639 376.977 185.328C387.915 192.546 395.58 206.015 395.654 218.144C395.654 219.93 396.175 222.311 396.771 223.502C399.375 228.562 406.817 229.381 410.761 224.99C412.472 223.055 412.77 222.088 412.77 218.219C412.77 200.582 402.277 181.607 387.097 171.784C384.641 170.147 382.483 168.808 382.334 168.659C382.186 168.584 383.748 166.65 385.832 164.268C390.297 159.357 393.72 152.734 395.282 146.037C397.44 136.735 396.399 128.252 391.859 118.801C383.823 101.984 365.07 92.7565 346.318 96.3283ZM364.549 114.709C369.386 116.792 374.446 121.704 376.828 126.689C378.539 130.187 378.911 131.824 378.911 136.81C378.911 142.093 378.614 143.358 376.456 147.748C372.809 155.115 367.154 159.357 358.968 160.92C348.253 162.855 337.686 157.273 332.7 147.079C331.063 143.73 330.617 141.87 330.617 137.256C330.542 132.27 330.84 130.931 332.998 126.615C336.346 119.769 342.002 115.155 349.146 113.295C352.866 112.327 360.829 112.997 364.549 114.709Z" fill="white"/>
<path d="M245.338 186.741C199.127 192.397 162.738 226.851 154.925 272.169C153.437 280.726 153.437 297.99 154.925 306.548C161.845 346.657 191.76 379.176 230.976 389.073C255.756 395.324 280.61 392.496 303.604 380.739L311.715 376.572L329.649 394.431C349.741 414.374 350.857 415.118 359.936 415.118C368.27 415.044 376.158 410.207 380.176 402.617C381.59 400.087 381.888 398.301 381.888 392.794C381.888 382.674 381.292 381.706 361.201 361.391L344.16 344.127L348.327 335.718C352.792 326.565 355.322 319.496 357.405 309.748C358.522 304.762 358.819 300.446 358.819 288.614C358.745 275.071 358.596 273.062 356.81 265.918C351.676 245.454 342.895 230.05 328.31 215.614C314.245 201.699 296.46 192.322 276.22 188.155C270.49 186.965 250.919 186.072 245.338 186.741ZM268.109 204.229C281.354 206.015 297.725 212.712 307.846 220.451C314.245 225.288 323.845 235.334 327.789 241.361C334.486 251.482 339.397 264.132 341.332 275.815C341.704 278.345 342.076 284.521 342.076 289.433C342.076 311.98 334.114 332.072 318.933 348.146C285.298 383.567 230.306 384.236 195.778 349.708C184.765 338.769 177.77 326.565 173.454 311.236C170.849 301.86 170.18 284.596 171.966 274.327C174.198 261.453 180.374 247.389 188.411 236.896C192.653 231.39 202.327 222.237 208.056 218.367C217.805 211.745 232.762 205.866 244.222 204.229C250.696 203.336 261.486 203.261 268.109 204.229ZM349.369 374.042C363.433 388.18 365.145 390.189 365.145 392.273C365.145 395.324 362.317 398.375 359.415 398.375C357.778 398.375 354.503 395.473 341.555 382.599C332.849 373.893 325.705 366.6 325.705 366.377C325.705 365.856 332.626 358.34 333.146 358.266C333.37 358.191 340.662 365.335 349.369 374.042Z" fill="#769DC6"/>
<path d="M249.803 213.53C227.107 217.921 211.852 239.278 215.572 261.379C216.689 268.076 220.93 276.708 225.767 282.215C228.074 284.894 228.967 286.382 228.297 286.605C225.767 287.424 215.349 296.13 211.926 300.297C207.387 305.804 201.955 316.445 200.169 323.217C199.499 325.896 198.904 330.956 198.904 334.528C198.829 340.704 198.978 341.151 200.913 343.085C202.624 344.871 203.592 345.169 206.94 345.169C211.703 345.169 214.605 343.085 215.126 339.29C215.275 338.025 215.796 334.379 216.242 331.179C218.4 315.403 230.827 301.637 246.603 297.544C269.299 291.591 293.558 307.813 296.758 331.105C297.205 334.304 297.725 338.025 297.874 339.29C298.395 343.085 301.297 345.169 306.06 345.169C309.408 345.169 310.376 344.871 312.087 343.085C314.022 341.151 314.171 340.704 314.097 334.528C314.097 330.956 313.501 325.896 312.832 323.217C311.046 316.445 305.613 305.804 301.074 300.297C297.651 296.13 287.233 287.424 284.703 286.605C284.033 286.382 284.926 284.894 287.233 282.215C302.265 265.174 301.372 240.766 285.075 224.767C277.931 217.698 268.853 213.828 258.36 213.456C254.714 213.307 250.845 213.382 249.803 213.53ZM266.323 232.432C271.755 234.962 275.55 238.757 278.229 244.115C280.313 248.431 280.685 249.845 280.685 254.756C280.61 259.221 280.238 261.23 278.675 264.504C271.457 280.131 251.366 283.852 239.385 271.871C230.306 262.793 229.86 248.059 238.492 238.31C240.873 235.557 247.05 231.836 250.845 230.869C254.64 229.902 262.676 230.72 266.323 232.432Z" fill="white"/>
</g>
<defs>
<clipPath id="clip0_16_653">
<rect width="512" height="512" fill="white"/>
</clipPath>
</defs>
</svg>
